<svg xmlns="http://www.w3.org/2000/svg" version="1.1" viewBox="0 0 1024 1536"><style>.l{fill:none;stroke:#000;stroke-width:2;stroke-linecap:round;vector-effect:non-scaling-stroke}</style><line class="l" x1="521" y1="1254" x2="521" y2="1103" /><line class="l" x1="523" y1="876" x2="523" y2="310" /><line class="l" x1="306" y1="1121" x2="306" y2="567" /><line class="l" x1="394" y1="1098" x2="394" y2="460" /><line class="l" x1="461" y1="1079" x2="461" y2="535" /><line class="l" x1="459" y1="1080" x2="459" y2="537" /><line class="l" x1="622" y1="973" x2="622" y2="410" /><line class="l" x1="327" y1="1116" x2="327" y2="537" /><line class="l" x1="624" y1="1255" x2="624" y2="1123" /><line class="l" x1="645" y1="1256" x2="645" y2="1118" /><line class="l" x1="325" y1="1116" x2="325" y2="539" /><line class="l" x1="597" y1="771" x2="597" y2="436" /><line class="l" x1="647" y1="861" x2="647" y2="561" /><line class="l" x1="595" y1="1082" x2="595" y2="797" /><line class="l" x1="304" y1="1122" x2="304" y2="567" /><line class="l" x1="438" y1="1255" x2="438" y2="1140" /><line class="l" x1="392" y1="1098" x2="392" y2="460" /><line class="l" x1="436" y1="1255" x2="436" y2="1140" /><line class="l" x1="267" y1="1088" x2="267" y2="785" /><line class="l" x1="269" y1="1088" x2="269" y2="784" /><line class="l" x1="555" y1="695" x2="555" y2="398" /><line class="l" x1="497" y1="1070" x2="497" y2="1002" /><line class="l" x1="557" y1="695" x2="557" y2="397" /><line class="l" x1="499" y1="889" x2="499" y2="677" /><line class="l" x1="717" y1="993" x2="717" y2="623" /><line class="l" x1="845" y1="1041" x2="845" y2="677" /><line class="l" x1="286" y1="1126" x2="286" y2="1076" /><line class="l" x1="715" y1="992" x2="715" y2="624" /><line class="l" x1="847" y1="1042" x2="847" y2="680" /><line class="l" x1="775" y1="1014" x2="775" y2="684" /><line class="l" x1="288" y1="1261" x2="288" y2="1146" /><line class="l" x1="818" y1="1259" x2="818" y2="1056" /><line class="l" x1="437" y1="1086" x2="437" y2="918" /><line class="l" x1="435" y1="562" x2="435" y2="410" /><line class="l" x1="773" y1="1014" x2="773" y2="685" /><line class="l" x1="521" y1="1065" x2="521" y2="483" /><line class="l" x1="558" y1="894" x2="558" y2="778" /><line class="l" x1="646" y1="560" x2="646" y2="363" /><line class="l" x1="473" y1="1076" x2="473" y2="1021" /><line class="l" x1="243" y1="1156" x2="519" y2="1092" /><line class="l" x1="644" y1="558" x2="644" y2="362" /><line class="l" x1="556" y1="749" x2="556" y2="696" /><line class="l" x1="471" y1="903" x2="471" y2="716" /><line class="l" x1="708" y1="1257" x2="708" y2="1018" /><line class="l" x1="804" y1="1258" x2="804" y2="1172" /><line class="l" x1="244" y1="1158" x2="519" y2="1095" /><line class="l" x1="786" y1="1258" x2="786" y2="1045" /><line class="l" x1="746" y1="894" x2="746" y2="816" /><line class="l" x1="405" y1="933" x2="405" y2="761" /><line class="l" x1="680" y1="1256" x2="680" y2="1025" /><line class="l" x1="437" y1="549" x2="437" y2="493" /><line class="l" x1="744" y1="766" x2="744" y2="715" /><line class="l" x1="359" y1="1258" x2="359" y2="1150" /><line class="l" x1="603" y1="1194" x2="604" y2="1255" /><line class="l" x1="788" y1="1258" x2="788" y2="1045" /><line class="l" x1="244" y1="1135" x2="302" y2="1120" /><line class="l" x1="724" y1="1257" x2="724" y2="1097" /><line class="l" x1="752" y1="1257" x2="752" y2="1033" /><line class="l" x1="542" y1="1254" x2="542" y2="1107" /><line class="l" x1="816" y1="1259" x2="816" y2="1055" /><line class="l" x1="247" y1="784" x2="389" y2="669" /><line class="l" x1="556" y1="803" x2="556" y2="859" /><line class="l" x1="710" y1="1257" x2="710" y2="1019" /><line class="l" x1="270" y1="843" x2="512" y2="668" /><line class="l" x1="243" y1="1138" x2="523" y2="1063" /><line class="l" x1="261" y1="1161" x2="440" y2="1123" /><line class="l" x1="754" y1="1257" x2="754" y2="1034" /><line class="l" x1="577" y1="1255" x2="681" y2="1256" /><line class="l" x1="624" y1="973" x2="624" y2="413" /><line class="l" x1="403" y1="934" x2="403" y2="763" /><line class="l" x1="436" y1="916" x2="436" y2="882" /><line class="l" x1="497" y1="891" x2="497" y2="679" /><line class="l" x1="822" y1="929" x2="822" y2="797" /><line class="l" x1="806" y1="1026" x2="806" y2="971" /><line class="l" x1="678" y1="1254" x2="678" y2="1026" /><line class="l" x1="317" y1="1260" x2="317" y2="1147" /><line class="l" x1="583" y1="1252" x2="583" y2="1132" /><line class="l" x1="425" y1="1255" x2="425" y2="1148" /><line class="l" x1="726" y1="1257" x2="726" y2="1096" /><line class="l" x1="364" y1="853" x2="365" y2="790" /><line class="l" x1="595" y1="680" x2="595" y2="735" /><line class="l" x1="490" y1="1254" x2="490" y2="1148" /><line class="l" x1="820" y1="930" x2="820" y2="797" /><line class="l" x1="361" y1="1107" x2="361" y2="1050" /><line class="l" x1="521" y1="21" x2="522" y2="63" /><line class="l" x1="396" y1="1256" x2="396" y2="1163" /><line class="l" x1="637" y1="1254" x2="637" y2="1126" /><line class="l" x1="487" y1="452" x2="520" y2="477" /><line class="l" x1="702" y1="693" x2="702" y2="558" /><line class="l" x1="315" y1="1259" x2="315" y2="1148" /><line class="l" x1="436" y1="833" x2="436" y2="777" /><line class="l" x1="266" y1="784" x2="266" y2="689" /><line class="l" x1="435" y1="957" x2="435" y2="917" /><line class="l" x1="362" y1="952" x2="362" y2="793" /><line class="l" x1="313" y1="1148" x2="502" y2="1107" /><line class="l" x1="711" y1="1255" x2="765" y2="1255" /><line class="l" x1="286" y1="1261" x2="286" y2="1154" /><line class="l" x1="398" y1="753" x2="524" y2="662" /><line class="l" x1="436" y1="669" x2="436" y2="722" /><line class="l" x1="585" y1="1252" x2="585" y2="1132" /><line class="l" x1="544" y1="1254" x2="544" y2="1108" /><line class="l" x1="562" y1="1177" x2="563" y2="1207" /><line class="l" x1="700" y1="695" x2="700" y2="558" /><line class="l" x1="865" y1="1074" x2="865" y2="935" /><line class="l" x1="645" y1="861" x2="645" y2="561" /><line class="l" x1="522" y1="197" x2="523" y2="249" /><line class="l" x1="746" y1="946" x2="747" y2="1004" /><line class="l" x1="635" y1="1255" x2="635" y2="1125" /><line class="l" x1="802" y1="762" x2="802" y2="704" /><line class="l" x1="557" y1="957" x2="557" y2="994" /><line class="l" x1="488" y1="1254" x2="488" y2="1148" /><line class="l" x1="268" y1="771" x2="520" y2="566" /><line class="l" x1="867" y1="1073" x2="867" y2="935" /><line class="l" x1="473" y1="902" x2="473" y2="715" /><line class="l" x1="580" y1="903" x2="580" y2="821" /><line class="l" x1="362" y1="1050" x2="523" y2="992" /><line class="l" x1="555" y1="991" x2="555" y2="1035" /><line class="l" x1="438" y1="409" x2="524" y2="310" /><line class="l" x1="333" y1="1112" x2="333" y2="1060" /><line class="l" x1="605" y1="1253" x2="605" y2="1126" /><line class="l" x1="252" y1="574" x2="354" y2="444" /><line class="l" x1="821" y1="796" x2="821" y2="701" /><line class="l" x1="336" y1="655" x2="409" y2="586" /><line class="l" x1="438" y1="918" x2="438" y2="558" /><line class="l" x1="270" y1="1129" x2="523" y2="1061" /><line class="l" x1="804" y1="1122" x2="805" y2="1089" /><line class="l" x1="703" y1="559" x2="846" y2="679" /><line class="l" x1="472" y1="367" x2="519" y2="312" /><line class="l" x1="743" y1="894" x2="744" y2="836" /><line class="l" x1="243" y1="1007" x2="322" y2="970" /><line class="l" x1="647" y1="1009" x2="648" y2="896" /><line class="l" x1="267" y1="610" x2="303" y2="568" /><line class="l" x1="806" y1="1245" x2="806" y2="1189" /><line class="l" x1="582" y1="904" x2="582" y2="820" /><line class="l" x1="621" y1="1088" x2="621" y2="969" /><line class="l" x1="423" y1="1255" x2="423" y2="1148" /><line class="l" x1="442" y1="1254" x2="551" y2="1254" /><line class="l" x1="486" y1="1252" x2="541" y2="1252" /><line class="l" x1="437" y1="412" x2="471" y2="438" /><line class="l" x1="472" y1="1252" x2="472" y2="1142" /><line class="l" x1="530" y1="321" x2="621" y2="412" /><line class="l" x1="524" y1="479" x2="554" y2="503" /><line class="l" x1="556" y1="1255" x2="556" y2="1201" /><line class="l" x1="841" y1="1193" x2="841" y2="1249" /><line class="l" x1="244" y1="1091" x2="356" y2="1052" /><line class="l" x1="682" y1="1257" x2="771" y2="1257" /><line class="l" x1="555" y1="906" x2="555" y2="941" /><line class="l" x1="470" y1="1252" x2="470" y2="1143" /><line class="l" x1="711" y1="1019" x2="864" y2="1072" /><line class="l" x1="513" y1="1063" x2="662" y2="1098" /><line class="l" x1="335" y1="1110" x2="335" y2="1059" /><line class="l" x1="623" y1="1087" x2="623" y2="974" /><line class="l" x1="548" y1="1135" x2="603" y2="1143" /><line class="l" x1="703" y1="561" x2="844" y2="680" /><line class="l" x1="292" y1="519" x2="325" y2="478" /><line class="l" x1="313" y1="919" x2="436" y2="851" /><line class="l" x1="366" y1="830" x2="401" y2="808" /><line class="l" x1="499" y1="1039" x2="499" y2="1003" /><line class="l" x1="318" y1="1158" x2="437" y2="1135" /><line class="l" x1="244" y1="1092" x2="447" y2="1022" /><line class="l" x1="370" y1="1236" x2="435" y2="1238" /><line class="l" x1="245" y1="1089" x2="245" y2="1002" /><line class="l" x1="647" y1="1155" x2="647" y2="1211" /><line class="l" x1="645" y1="1077" x2="645" y2="1021" /><line class="l" x1="523" y1="1062" x2="662" y2="1097" /><line class="l" x1="330" y1="933" x2="436" y2="879" /><line class="l" x1="745" y1="1254" x2="745" y2="1163" /><line class="l" x1="804" y1="763" x2="805" y2="706" /><line class="l" x1="244" y1="1003" x2="399" y2="934" /><line class="l" x1="523" y1="1191" x2="523" y2="1135" /><line class="l" x1="308" y1="1075" x2="435" y2="1034" /><line class="l" x1="820" y1="977" x2="821" y2="1032" /><line class="l" x1="819" y1="796" x2="819" y2="700" /><line class="l" x1="268" y1="783" x2="268" y2="690" /><line class="l" x1="311" y1="1076" x2="434" y2="1037" /><line class="l" x1="839" y1="1259" x2="839" y2="1163" /><line class="l" x1="326" y1="538" x2="391" y2="461" /><line class="l" x1="581" y1="1076" x2="581" y2="1029" /><line class="l" x1="538" y1="1000" x2="597" y2="1019" /><line class="l" x1="329" y1="819" x2="391" y2="775" /><line class="l" x1="728" y1="1154" x2="841" y2="1170" /><line class="l" x1="645" y1="952" x2="645" y2="1000" /><line class="l" x1="807" y1="1174" x2="807" y2="1081" /><line class="l" x1="840" y1="1162" x2="840" y2="1063" /><line class="l" x1="336" y1="711" x2="336" y2="649" /><line class="l" x1="557" y1="1255" x2="558" y2="1213" /><line class="l" x1="243" y1="1090" x2="243" y2="1005" /><line class="l" x1="705" y1="1019" x2="866" y2="1074" /><line class="l" x1="463" y1="305" x2="521" y2="231" /><line class="l" x1="461" y1="1165" x2="461" y2="1117" /><line class="l" x1="359" y1="1066" x2="359" y2="1104" /><line class="l" x1="493" y1="270" x2="520" y2="236" /><line class="l" x1="597" y1="1067" x2="597" y2="1011" /><line class="l" x1="499" y1="1200" x2="499" y2="1251" /><line class="l" x1="330" y1="544" x2="436" y2="613" /><line class="l" x1="747" y1="1254" x2="747" y2="1172" /><line class="l" x1="286" y1="983" x2="286" y2="931" /><line class="l" x1="497" y1="1147" x2="497" y2="1203" /><line class="l" x1="555" y1="1127" x2="556" y2="1157" /><line class="l" x1="321" y1="1159" x2="437" y2="1136" /><line class="l" x1="257" y1="564" x2="281" y2="534" /><line class="l" x1="523" y1="33" x2="523" y2="0" /><line class="l" x1="597" y1="809" x2="597" y2="865" /><line class="l" x1="328" y1="539" x2="395" y2="461" /><line class="l" x1="285" y1="833" x2="286" y2="894" /><line class="l" x1="760" y1="1253" x2="760" y2="1174" /><line class="l" x1="842" y1="1161" x2="842" y2="1067" /><line class="l" x1="471" y1="1020" x2="472" y2="1077" /><line class="l" x1="497" y1="1251" x2="497" y2="1217" /><line class="l" x1="446" y1="549" x2="502" y2="496" /><line class="l" x1="258" y1="1161" x2="289" y2="1154" /><line class="l" x1="524" y1="1093" x2="588" y2="1107" /><line class="l" x1="396" y1="876" x2="436" y2="854" /><line class="l" x1="395" y1="463" x2="476" y2="524" /><line class="l" x1="727" y1="1056" x2="834" y2="1089" /><line class="l" x1="758" y1="1254" x2="758" y2="1165" /><line class="l" x1="319" y1="1178" x2="380" y2="1168" /><line class="l" x1="436" y1="407" x2="530" y2="483" /><line class="l" x1="330" y1="1085" x2="435" y2="1053" /><line class="l" x1="764" y1="661" x2="818" y2="702" /><line class="l" x1="743" y1="1000" x2="848" y2="1040" /><line class="l" x1="267" y1="1174" x2="267" y2="1230" /><line class="l" x1="420" y1="361" x2="493" y2="271" /><line class="l" x1="328" y1="816" x2="402" y2="764" /><line class="l" x1="649" y1="770" x2="707" y2="740" /><line class="l" x1="556" y1="879" x2="557" y2="916" /><line class="l" x1="528" y1="243" x2="573" y2="289" /><line class="l" x1="329" y1="1084" x2="435" y2="1051" /><line class="l" x1="740" y1="1149" x2="830" y2="1166" /><line class="l" x1="553" y1="1253" x2="634" y2="1253" /><line class="l" x1="568" y1="1250" x2="602" y2="1250" /><line class="l" x1="709" y1="989" x2="848" y2="1042" /><line class="l" x1="352" y1="1162" x2="435" y2="1169" /><line class="l" x1="271" y1="845" x2="472" y2="699" /><line class="l" x1="395" y1="460" x2="456" y2="507" /><line class="l" x1="392" y1="1158" x2="392" y2="1214" /><line class="l" x1="792" y1="917" x2="792" y2="852" /><line class="l" x1="361" y1="1258" x2="361" y2="1152" /><line class="l" x1="790" y1="916" x2="790" y2="851" /><line class="l" x1="326" y1="539" x2="436" y2="611" /><line class="l" x1="374" y1="415" x2="420" y2="358" /><line class="l" x1="308" y1="867" x2="433" y2="789" /><line class="l" x1="266" y1="1086" x2="266" y2="1127" /><line class="l" x1="465" y1="864" x2="496" y2="849" /><line class="l" x1="520" y1="1095" x2="662" y2="1123" /><line class="l" x1="318" y1="727" x2="512" y2="570" /><line class="l" x1="776" y1="833" x2="819" y2="857" /><line class="l" x1="721" y1="625" x2="786" y2="675" /><line class="l" x1="776" y1="835" x2="819" y2="859" /><line class="l" x1="338" y1="663" x2="338" y2="713" /><line class="l" x1="307" y1="870" x2="435" y2="790" /><line class="l" x1="725" y1="1057" x2="831" y2="1090" /><line class="l" x1="526" y1="566" x2="582" y2="606" /><line class="l" x1="459" y1="1119" x2="459" y2="1152" /><line class="l" x1="288" y1="927" x2="288" y2="834" /><line class="l" x1="622" y1="1228" x2="622" y2="1172" /><line class="l" x1="728" y1="1102" x2="839" y2="1128" /><line class="l" x1="602" y1="1184" x2="603" y2="1127" /><line class="l" x1="461" y1="1229" x2="461" y2="1173" /><line class="l" x1="531" y1="247" x2="586" y2="304" /><line class="l" x1="308" y1="977" x2="402" y2="935" /><line class="l" x1="339" y1="822" x2="436" y2="866" /><line class="l" x1="405" y1="1130" x2="444" y2="1122" /><line class="l" x1="324" y1="818" x2="434" y2="867" /><line class="l" x1="727" y1="1063" x2="727" y2="1105" /><line class="l" x1="521" y1="434" x2="521" y2="378" /><line class="l" x1="701" y1="1098" x2="814" y2="1124" /><line class="l" x1="360" y1="629" x2="391" y2="601" /><line class="l" x1="307" y1="567" x2="424" y2="640" /><line class="l" x1="315" y1="1090" x2="387" y2="1100" /><line class="l" x1="597" y1="980" x2="597" y2="924" /><line class="l" x1="554" y1="341" x2="610" y2="398" /><line class="l" x1="729" y1="1115" x2="838" y2="1138" /><line class="l" x1="306" y1="1181" x2="306" y2="1150" /><line class="l" x1="304" y1="1186" x2="304" y2="1234" /><line class="l" x1="727" y1="1160" x2="809" y2="1172" /><line class="l" x1="344" y1="923" x2="436" y2="878" /><line class="l" x1="318" y1="1180" x2="368" y2="1172" /><line class="l" x1="364" y1="951" x2="364" y2="854" /><line class="l" x1="459" y1="1153" x2="459" y2="1209" /><line class="l" x1="740" y1="1147" x2="841" y2="1166" /><line class="l" x1="498" y1="1176" x2="499" y2="1118" /><line class="l" x1="728" y1="1152" x2="806" y2="1163" /><line class="l" x1="744" y1="945" x2="744" y2="980" /><line class="l" x1="727" y1="1116" x2="839" y2="1140" /><line class="l" x1="269" y1="1218" x2="269" y2="1162" /><line class="l" x1="437" y1="413" x2="437" y2="464" /><line class="l" x1="567" y1="1102" x2="662" y2="1121" /><line class="l" x1="436" y1="668" x2="436" y2="614" /><line class="l" x1="267" y1="612" x2="335" y2="651" /><line class="l" x1="389" y1="940" x2="465" y2="905" /><line class="l" x1="415" y1="1253" x2="471" y2="1252" /><line class="l" x1="647" y1="1010" x2="647" y2="1066" /><polyline class="l" points="258,550 259,552 259,561 258,562 256,561 252,561 254,562 257,562 258,563 258,565 253,571 252,574 257,567 258,568 258,578 259,578 259,568 258,567 259,564 260,563 265,568 267,568 260,563 262,559 260,562 259,561 259,550" /><polyline class="l" points="522,310 436,408 436,490 393,460 325,578 267,610 267,1262 268,1161 287,1261 304,1151 305,1261 307,1151 316,1260 390,1236 862,1259 846,679 702,558 646,597 646,349 646,659 623,643 623,411" /><polyline class="l" points="508,222 512,227 520,233 518,237 513,242 512,245 517,238 521,235 522,236 521,237 521,250 522,250 522,238 523,237 529,243 522,234 534,224 524,231 521,229 522,232 520,233" /></svg>